<svg xmlns="http://www.w3.org/2000/svg" viewBox="0 0 96 96">
  <defs><linearGradient id="g" x1="10" y1="8" x2="88" y2="92" gradientUnits="userSpaceOnUse"><stop stop-color="#42c8ba"/><stop offset="1" stop-color="#087b89"/></linearGradient></defs>
  <rect width="96" height="96" rx="25" fill="url(#g)"/>
  <circle cx="48" cy="49" r="27" fill="#fff" fill-opacity=".96"/>
  <path d="M34 44c0-8 6-14 14-14s14 6 14 14v9c0 8-6 14-14 14s-14-6-14-14v-9Z" fill="#ffe6d4"/>
  <path d="M34 46c2-11 9-16 20-14 6 1 9 6 9 12-9 0-15-3-19-8-2 5-5 8-10 10Z" fill="#6e4a3d"/>
  <circle cx="42" cy="49" r="2" fill="#203442"/><circle cx="55" cy="49" r="2" fill="#203442"/>
  <path d="M43 57c3 3 7 3 10 0" fill="none" stroke="#d46d65" stroke-width="2.5" stroke-linecap="round"/>
  <path d="M70 66c7 0 12 4 12 10" fill="none" stroke="#fff" stroke-width="4" stroke-linecap="round"/>
</svg>
