<svg xmlns="http://www.w3.org/2000/svg" viewBox="0 0 24 24" fill="currentColor"><path d="M17.05 12.54c-.03-3.03 2.47-4.5 2.58-4.57a5.53 5.53 0 0 0-4.35-2.35c-1.83-.2-3.6 1.1-4.53 1.1-.95 0-2.38-1.08-3.93-1.05a5.78 5.78 0 0 0-4.87 2.97c-2.1 3.64-.53 8.98 1.48 11.92 1 1.44 2.17 3.04 3.72 2.98 1.51-.06 2.08-.96 3.91-.96 1.81 0 2.35.96 3.93.92 1.63-.02 2.66-1.44 3.62-2.9a11.9 11.9 0 0 0 1.66-3.38 5.22 5.22 0 0 1-3.22-4.68ZM14.08 3.68A5.3 5.3 0 0 0 15.3 0a5.38 5.38 0 0 0-3.49 1.75 5.04 5.04 0 0 0-1.25 3.54 4.44 4.44 0 0 0 3.52-1.61Z"/></svg>
